# xmcd
#
# Track frame offsets:
#	150
#	34904
#	64317
#	88041
#	109028
#	139078
#
# Disc length: 2438 seconds
#
# Revision: 1
# Processed by: cddbd v1.5.2PL0 Copyright (c) Steve Scherf et al.
# Submitted via: EasyCDDAExtractor 6.2.0.3
#
DISCID=50098406
DTITLE=Amina Claudine Myers - Augmented Variations CD2
DYEAR=2009
DGENRE=Blues
TTITLE0=Soul Funk No 1
TTITLE1=Hardtime Blues
TTITLE2=Happiness
TTITLE3=Claudine's Blues
TTITLE4=Ain't Nobody Ever Gonna Hear Us
TTITLE5=Song From The West
EXTD=
EXTT0=
EXTT1=
EXTT2=
EXTT3=
EXTT4=
EXTT5=
PLAYORDER=
